{
.appVersion = "3087";
.formatVersion = 3;
date = "2022-02-20 13:28:03 +0000";
familyName = "Optica Mono";
fontMaster = (
{
customParameters = (
{
name = "Default Layer Width";
value = "1266";
}
);
id = m01;
metricValues = (
{
pos = 1920;
},
{
over = 32;
pos = 1440;
},
{
over = 20;
pos = 1080;
},
{
over = -20;
},
{
pos = -480;
}
);
name = Regular;
stemValues = (
170
);
}
);
glyphs = (
{
glyphname = a;
lastChange = "2022-02-22 01:10:59 +0000";
layers = (
{
layerId = m01;
shapes = (
{
closed = 1;
nodes = (
(742,-20,o),
(855,98,o),
(894,187,c),
(910,187,l),
(910,0,l),
(1066,0,l),
(1066,715,ls),
(1066,943,o),
(913,1100,o),
(658,1100,cs),
(425,1100,o),
(272,980,o),
(224,794,c),
(388,794,l),
(416,888,o),
(518,953,o),
(633,953,cs),
(806,953,o),
(906,862,o),
(906,712,cs),
(906,636,l),
(594,636,ls),
(328,636,o),
(174,495,o),
(174,292,cs),
(174,121,o),
(310,-20,o),
(544,-20,cs)
);
},
{
closed = 1;
nodes = (
(453,122,o),
(340,188,o),
(340,313,cs),
(340,434,o),
(457,502,o),
(609,502,cs),
(906,502,l),
(906,388,ls),
(906,239,o),
(731,122,o),
(596,122,cs)
);
}
);
width = 1266;
}
);
unicode = 97;
},
{
glyphname = b;
lastChange = "2022-02-21 12:53:05 +0000";
layers = (
{
guides = (
{
pos = (319,1472);
},
{
pos = (194,1440);
}
);
layerId = m01;
shapes = (
{
closed = 1;
nodes = (
(932,-20,o),
(1110,135,o),
(1110,390,cs),
(1110,690,ls),
(1110,945,o),
(932,1100,o),
(715,1100,cs),
(544,1100,o),
(425,1015,o),
(374,893,c),
(362,893,l),
(362,1472,l),
(192,1472,l),
(192,0,l),
(354,0,l),
(354,187,l),
(370,187,l),
(421,65,o),
(544,-20,o),
(715,-20,cs)
);
},
{
closed = 1;
nodes = (
(506,135,o),
(362,246,o),
(362,432,cs),
(362,648,ls),
(362,834,o),
(506,945,o),
(670,945,cs),
(830,945,o),
(940,833,o),
(940,655,cs),
(940,425,ls),
(940,247,o),
(830,135,o),
(670,135,cs)
);
}
);
width = 1266;
}
);
unicode = 98;
},
{
glyphname = c;
lastChange = "2022-02-21 07:12:07 +0000";
layers = (
{
layerId = m01;
shapes = (
{
closed = 1;
nodes = (
(885,-20,o),
(1052,108,o),
(1096,328,c),
(922,328,l),
(882,197,o),
(782,128,o),
(633,128,cs),
(447,128,o),
(332,248,o),
(332,464,cs),
(332,618,ls),
(332,833,o),
(447,952,o),
(633,952,cs),
(782,952,o),
(883,881,o),
(922,748,c),
(1096,748,l),
(1052,969,o),
(885,1100,o),
(633,1100,cs),
(346,1100,o),
(164,928,o),
(164,633,cs),
(164,448,ls),
(164,153,o),
(346,-20,o),
(633,-20,cs)
);
}
);
width = 1266;
}
);
unicode = 99;
},
{
glyphname = d;
lastChange = "2022-02-21 12:53:16 +0000";
layers = (
{
guides = (
{
pos = (313,1472);
},
{
pos = (188,1440);
}
);
layerId = m01;
shapes = (
{
closed = 1;
nodes = (
(722,-20,o),
(845,65,o),
(896,187,c),
(912,187,l),
(912,0,l),
(1074,0,l),
(1074,1472,l),
(904,1472,l),
(904,893,l),
(892,893,l),
(841,1015,o),
(722,1100,o),
(551,1100,cs),
(334,1100,o),
(156,945,o),
(156,690,cs),
(156,390,ls),
(156,135,o),
(334,-20,o),
(551,-20,cs)
);
},
{
closed = 1;
nodes = (
(436,135,o),
(326,247,o),
(326,425,cs),
(326,655,ls),
(326,833,o),
(436,945,o),
(596,945,cs),
(760,945,o),
(904,834,o),
(904,648,cs),
(904,432,ls),
(904,246,o),
(760,135,o),
(596,135,cs)
);
}
);
width = 1266;
}
);
unicode = 100;
},
{
glyphname = e;
lastChange = "2022-02-21 12:59:57 +0000";
layers = (
{
layerId = m01;
shapes = (
{
closed = 1;
nodes = (
(872,-20,o),
(1046,104,o),
(1094,314,c),
(917,314,l),
(880,199,o),
(771,126,o),
(633,126,cs),
(447,126,o),
(332,248,o),
(332,464,cs),
(332,500,l),
(1102,500,l),
(1102,622,ls),
(1102,920,o),
(921,1100,o),
(633,1100,cs),
(346,1100,o),
(164,922,o),
(164,623,cs),
(164,448,ls),
(164,158,o),
(346,-20,o),
(633,-20,cs)
);
},
{
closed = 1;
nodes = (
(339,843,o),
(453,954,o),
(633,954,cs),
(813,954,o),
(927,843,o),
(934,638,c),
(332,638,l)
);
}
);
width = 1266;
}
);
unicode = 101;
},
{
glyphname = f;
lastChange = "2022-02-21 07:12:32 +0000";
layers = (
{
layerId = m01;
shapes = (
{
closed = 1;
nodes = (
(672,0,l),
(672,936,l),
(1096,936,l),
(1096,1080,l),
(674,1080,l),
(674,1175,ls),
(674,1289,o),
(751,1324,o),
(836,1324,cs),
(1072,1324,l),
(1072,1472,l),
(826,1472,ls),
(646,1472,o),
(504,1385,o),
(504,1183,cs),
(504,1080,l),
(196,1080,l),
(196,936,l),
(504,936,l),
(504,0,l)
);
}
);
width = 1266;
}
);
unicode = 102;
},
{
glyphname = g;
lastChange = "2022-02-22 01:01:09 +0000";
layers = (
{
guides = (
{
pos = (313,1472);
},
{
pos = (188,1440);
}
);
layerId = m01;
shapes = (
{
closed = 1;
nodes = (
(644,-384,ls),
(916,-384,o),
(1074,-256,o),
(1074,-2,cs),
(1074,1080,l),
(912,1080,l),
(912,893,l),
(896,893,l),
(845,1015,o),
(722,1100,o),
(551,1100,cs),
(334,1100,o),
(156,945,o),
(156,690,cs),
(156,482,ls),
(156,227,o),
(334,72,o),
(551,72,cs),
(722,72,o),
(843,157,o),
(894,279,c),
(906,279,l),
(906,11,ls),
(906,-165,o),
(820,-236,o),
(644,-236,cs),
(296,-236,l),
(296,-384,l)
);
},
{
closed = 1;
nodes = (
(436,227,o),
(326,339,o),
(326,517,cs),
(326,655,ls),
(326,833,o),
(436,945,o),
(596,945,cs),
(760,945,o),
(904,834,o),
(904,648,cs),
(904,524,ls),
(904,338,o),
(760,227,o),
(596,227,cs)
);
}
);
width = 1266;
}
);
unicode = 103;
},
{
glyphname = h;
lastChange = "2022-02-21 11:54:45 +0000";
layers = (
{
layerId = m01;
shapes = (
{
closed = 1;
nodes = (
(358,0,l),
(358,648,ls),
(358,834,o),
(487,945,o),
(651,945,cs),
(811,945,o),
(908,833,o),
(908,655,cs),
(908,0,l),
(1078,0,l),
(1078,690,ls),
(1078,945,o),
(913,1100,o),
(696,1100,cs),
(525,1100,o),
(415,1015,o),
(364,893,c),
(350,893,l),
(350,1472,l),
(188,1472,l),
(188,1080,l),
(188,0,l)
);
}
);
width = 1266;
}
);
unicode = 104;
},
{
glyphname = i;
lastChange = "2022-02-21 12:46:05 +0000";
layers = (
{
layerId = m01;
shapes = (
{
closed = 1;
nodes = (
(1108,0,l),
(1108,142,l),
(756,142,l),
(756,1080,l),
(252,1080,l),
(252,938,l),
(586,938,l),
(586,142,l),
(204,142,l),
(204,0,l)
);
},
{
closed = 1;
nodes = (
(739,1324,o),
(800,1382,o),
(800,1460,cs),
(800,1538,o),
(739,1596,o),
(660,1596,cs),
(581,1596,o),
(520,1538,o),
(520,1460,cs),
(520,1382,o),
(581,1324,o),
(660,1324,cs)
);
}
);
width = 1266;
}
);
unicode = 105;
},
{
glyphname = j;
lastChange = "2022-02-21 12:46:00 +0000";
layers = (
{
layerId = m01;
shapes = (
{
closed = 1;
nodes = (
(480,-384,ls),
(752,-384,o),
(910,-256,o),
(910,-2,cs),
(910,1080,l),
(224,1080,l),
(224,938,l),
(740,938,l),
(740,11,ls),
(740,-165,o),
(656,-236,o),
(480,-236,cs),
(176,-236,l),
(176,-384,l)
);
},
{
closed = 1;
nodes = (
(893,1324,o),
(954,1382,o),
(954,1460,cs),
(954,1538,o),
(893,1596,o),
(814,1596,cs),
(735,1596,o),
(674,1538,o),
(674,1460,cs),
(674,1382,o),
(735,1324,o),
(814,1324,cs)
);
}
);
width = 1266;
}
);
unicode = 106;
},
{
glyphname = k;
lastChange = "2022-02-21 10:45:15 +0000";
layers = (
{
layerId = m01;
shapes = (
{
closed = 1;
nodes = (
(597,571,l),
(611,571,l),
(1114,1080,l),
(904,1080,l),
(436,606,l),
(396,606,l),
(396,372,l)
);
},
{
closed = 1;
nodes = (
(418,0,l),
(418,1440,l),
(248,1440,l),
(248,0,l)
);
},
{
closed = 1;
nodes = (
(1145,0,l),
(631,650,l),
(512,535,l),
(934,0,l)
);
}
);
width = 1266;
}
);
unicode = 107;
},
{
glyphname = l;
lastChange = "2022-02-22 01:53:35 +0000";
layers = (
{
layerId = m01;
shapes = (
{
closed = 1;
nodes = (
(1108,0,l),
(1108,142,l),
(756,142,l),
(756,1472,l),
(252,1472,l),
(252,1330,l),
(586,1330,l),
(586,142,l),
(204,142,l),
(204,0,l)
);
}
);
width = 1266;
}
);
unicode = 108;
},
{
glyphname = m;
lastChange = "2022-02-21 13:03:43 +0000";
layers = (
{
layerId = m01;
shapes = (
{
closed = 1;
nodes = (
(272,0,l),
(272,724,ls),
(272,858,o),
(330,945,o),
(422,945,cs),
(522,945,o),
(559,872,o),
(559,742,cs),
(559,0,l),
(711,0,l),
(711,724,ls),
(711,858,o),
(768,945,o),
(860,945,cs),
(962,945,o),
(994,873,o),
(994,741,cs),
(994,0,l),
(1146,0,l),
(1146,795,ls),
(1146,992,o),
(1057,1100,o),
(915,1100,cs),
(806,1100,o),
(727,1028,o),
(700,926,c),
(684,926,l),
(661,1028,o),
(585,1100,o),
(484,1100,cs),
(382,1100,o),
(308,1026,o),
(287,923,c),
(271,923,l),
(271,1080,l),
(120,1080,l),
(120,0,l)
);
}
);
width = 1266;
}
);
unicode = 109;
},
{
glyphname = n;
lastChange = "2022-02-21 07:47:11 +0000";
layers = (
{
layerId = m01;
shapes = (
{
closed = 1;
nodes = (
(358,0,l),
(358,648,ls),
(358,834,o),
(487,945,o),
(651,945,cs),
(811,945,o),
(908,833,o),
(908,655,cs),
(908,0,l),
(1078,0,l),
(1078,690,ls),
(1078,945,o),
(913,1100,o),
(696,1100,cs),
(525,1100,o),
(417,1015,o),
(366,893,c),
(350,893,l),
(350,1080,l),
(188,1080,l),
(188,0,l)
);
}
);
width = 1266;
}
);
unicode = 110;
},
{
glyphname = o;
lastChange = "2022-02-21 07:13:06 +0000";
layers = (
{
layerId = m01;
shapes = (
{
closed = 1;
nodes = (
(920,-20,o),
(1102,153,o),
(1102,448,cs),
(1102,633,ls),
(1102,928,o),
(920,1100,o),
(633,1100,cs),
(346,1100,o),
(164,928,o),
(164,633,cs),
(164,448,ls),
(164,153,o),
(346,-20,o),
(633,-20,cs)
);
},
{
closed = 1;
nodes = (
(447,128,o),
(332,248,o),
(332,464,cs),
(332,618,ls),
(332,833,o),
(447,952,o),
(633,952,cs),
(819,952,o),
(934,833,o),
(934,618,cs),
(934,464,ls),
(934,248,o),
(819,128,o),
(633,128,cs)
);
}
);
width = 1266;
}
);
unicode = 111;
},
{
glyphname = p;
lastChange = "2022-02-21 12:52:28 +0000";
layers = (
{
guides = (
{
pos = (319,1472);
},
{
pos = (194,1440);
}
);
layerId = m01;
shapes = (
{
closed = 1;
nodes = (
(360,-384,l),
(360,187,l),
(372,187,l),
(423,65,o),
(544,-20,o),
(715,-20,cs),
(932,-20,o),
(1110,135,o),
(1110,390,cs),
(1110,690,ls),
(1110,945,o),
(932,1100,o),
(715,1100,cs),
(544,1100,o),
(421,1015,o),
(370,893,c),
(354,893,l),
(354,1080,l),
(192,1080,l),
(192,-384,l)
);
},
{
closed = 1;
nodes = (
(506,135,o),
(362,246,o),
(362,432,cs),
(362,648,ls),
(362,834,o),
(506,945,o),
(670,945,cs),
(830,945,o),
(940,833,o),
(940,655,cs),
(940,425,ls),
(940,247,o),
(830,135,o),
(670,135,cs)
);
}
);
width = 1266;
}
);
unicode = 112;
},
{
glyphname = q;
lastChange = "2022-02-22 01:58:55 +0000";
layers = (
{
guides = (
{
pos = (313,1472);
},
{
pos = (188,1440);
}
);
layerId = m01;
shapes = (
{
closed = 1;
nodes = (
(1074,-384,l),
(1074,1080,l),
(912,1080,l),
(912,893,l),
(896,893,l),
(845,1015,o),
(722,1100,o),
(551,1100,cs),
(334,1100,o),
(156,945,o),
(156,690,cs),
(156,390,ls),
(156,135,o),
(334,-20,o),
(551,-20,cs),
(722,-20,o),
(843,65,o),
(894,187,c),
(906,187,l),
(906,-384,l)
);
},
{
closed = 1;
nodes = (
(436,135,o),
(326,247,o),
(326,425,cs),
(326,655,ls),
(326,833,o),
(436,945,o),
(596,945,cs),
(760,945,o),
(904,834,o),
(904,648,cs),
(904,432,ls),
(904,246,o),
(760,135,o),
(596,135,cs)
);
}
);
width = 1266;
}
);
unicode = 113;
},
{
glyphname = r;
lastChange = "2022-02-21 12:58:56 +0000";
layers = (
{
layerId = m01;
shapes = (
{
closed = 1;
nodes = (
(906,0,l),
(906,142,l),
(554,142,l),
(554,572,ls),
(554,834,o),
(740,932,o),
(922,932,cs),
(998,932,o),
(1080,914,o),
(1145,883,c),
(1145,1053,l),
(1088,1087,o),
(1033,1100,o),
(945,1100,cs),
(732,1100,o),
(617,1000,o),
(570,840,c),
(554,840,l),
(554,1080,l),
(224,1080,l),
(224,938,l),
(384,938,l),
(384,142,l),
(200,142,l),
(200,0,l)
);
}
);
width = 1266;
}
);
unicode = 114;
},
{
glyphname = s;
lastChange = "2022-02-22 01:27:26 +0000";
layers = (
{
hints = (
{
horizontal = 1;
origin = (0,38);
target = (0,0);
type = Stem;
},
{
horizontal = 1;
origin = (0,39);
target = (0,37);
type = Stem;
},
{
horizontal = 1;
origin = (0,1);
target = (0,33);
type = Stem;
},
{
horizontal = 1;
origin = (0,32);
target = (0,31);
type = Stem;
},
{
horizontal = 1;
origin = (0,34);
target = (0,30);
type = Stem;
},
{
horizontal = 1;
origin = (0,36);
target = (0,35);
type = Stem;
},
{
horizontal = 1;
origin = (0,29);
target = (0,2);
type = Stem;
},
{
horizontal = 1;
origin = (0,28);
target = (0,27);
type = Stem;
},
{
horizontal = 1;
origin = (0,26);
target = (0,3);
type = Stem;
},
{
horizontal = 1;
origin = (0,25);
target = (0,24);
type = Stem;
},
{
horizontal = 1;
origin = (0,4);
target = (0,5);
type = Stem;
},
{
horizontal = 1;
origin = (0,23);
target = (0,6);
type = Stem;
},
{
horizontal = 1;
origin = (0,7);
target = (0,8);
type = Stem;
},
{
horizontal = 1;
origin = (0,22);
target = (0,9);
type = Stem;
},
{
horizontal = 1;
origin = (0,16);
target = (0,15);
type = Stem;
},
{
horizontal = 1;
origin = (0,10);
target = (0,14);
type = Stem;
},
{
horizontal = 1;
origin = (0,13);
target = (0,12);
type = Stem;
},
{
horizontal = 1;
origin = (0,11);
target = (0,21);
type = Stem;
},
{
horizontal = 1;
origin = (0,20);
target = (0,17);
type = Stem;
},
{
horizontal = 1;
origin = (0,19);
target = (0,18);
type = Stem;
}
);
layerId = m01;
shapes = (
{
closed = 1;
nodes = (
(888,-20,o),
(1057,95,o),
(1057,294,cs),
(1057,447,o),
(960,557,o),
(751,604,cs),
(608,636,ls),
(472,666,o),
(407,716,o),
(407,808,cs),
(407,906,o),
(497,960,o),
(635,960,cs),
(762,960,o),
(850,902,o),
(870,808,c),
(1034,808,l),
(1013,989,o),
(863,1100,o),
(638,1100,cs),
(400,1100,o),
(238,984,o),
(238,797,cs),
(238,643,o),
(335,534,o),
(530,491,cs),
(675,459,ls),
(795,432,o),
(881,376,o),
(881,279,cs),
(881,178,o),
(787,124,o),
(639,124,cs),
(499,124,o),
(404,181,o),
(380,279,c),
(207,279,l),
(227,93,o),
(384,-20,o),
(632,-20,cs)
);
}
);
width = 1266;
}
);
unicode = 115;
},
{
glyphname = t;
lastChange = "2022-02-21 07:13:19 +0000";
layers = (
{
layerId = m01;
shapes = (
{
closed = 1;
nodes = (
(1040,-4,l),
(1040,144,l),
(804,144,ls),
(719,144,o),
(642,179,o),
(642,293,cs),
(642,936,l),
(1064,936,l),
(1064,1080,l),
(640,1080,l),
(640,1388,l),
(472,1388,l),
(472,1080,l),
(164,1080,l),
(164,936,l),
(472,936,l),
(472,285,ls),
(472,83,o),
(614,-4,o),
(794,-4,cs)
);
}
);
width = 1266;
}
);
unicode = 116;
},
{
glyphname = u;
lastChange = "2022-02-21 11:39:52 +0000";
layers = (
{
layerId = m01;
shapes = (
{
closed = 1;
nodes = (
(741,-20,o),
(849,65,o),
(900,187,c),
(916,187,l),
(916,0,l),
(1078,0,l),
(1078,1080,l),
(908,1080,l),
(908,432,ls),
(908,246,o),
(779,135,o),
(615,135,cs),
(455,135,o),
(358,247,o),
(358,425,cs),
(358,1080,l),
(188,1080,l),
(188,390,ls),
(188,135,o),
(353,-20,o),
(570,-20,cs)
);
}
);
width = 1266;
}
);
unicode = 117;
},
{
glyphname = v;
lastChange = "2022-02-21 11:58:03 +0000";
layers = (
{
layerId = m01;
shapes = (
{
closed = 1;
nodes = (
(718,0,l),
(1117,1080,l),
(938,1080,l),
(638,219,l),
(628,219,l),
(328,1080,l),
(149,1080,l),
(548,0,l)
);
}
);
width = 1266;
}
);
unicode = 118;
},
{
glyphname = w;
lastChange = "2022-02-21 11:39:30 +0000";
layers = (
{
layerId = m01;
shapes = (
{
closed = 1;
nodes = (
(434,0,l),
(625,838,l),
(641,838,l),
(832,0,l),
(994,0,l),
(1218,1080,l),
(1052,1080,l),
(906,220,l),
(890,220,l),
(713,1079,l),
(553,1079,l),
(376,220,l),
(360,220,l),
(214,1080,l),
(48,1080,l),
(272,0,l)
);
}
);
width = 1266;
}
);
unicode = 119;
},
{
glyphname = x;
lastChange = "2022-02-21 11:47:33 +0000";
layers = (
{
layerId = m01;
shapes = (
{
closed = 1;
nodes = (
(368,0,l),
(627,412,l),
(639,412,l),
(898,0,l),
(1093,0,l),
(736,540,l),
(1093,1080,l),
(898,1080,l),
(639,648,l),
(627,648,l),
(368,1080,l),
(173,1080,l),
(524,540,l),
(173,0,l)
);
}
);
width = 1266;
}
);
unicode = 120;
},
{
glyphname = y;
lastChange = "2022-02-21 12:49:22 +0000";
layers = (
{
layerId = m01;
shapes = (
{
closed = 1;
nodes = (
(369,-384,ls),
(509,-384,o),
(604,-306,o),
(671,-125,cs),
(1115,1080,l),
(937,1080,l),
(638,221,l),
(627,221,l),
(329,1080,l),
(151,1080,l),
(548,1,l),
(509,-106,ls),
(480,-187,o),
(428,-236,o),
(334,-236,cs),
(224,-236,l),
(224,-384,l)
);
}
);
width = 1266;
}
);
unicode = 121;
},
{
glyphname = z;
lastChange = "2022-02-21 12:11:41 +0000";
layers = (
{
layerId = m01;
shapes = (
{
closed = 1;
nodes = (
(1072,-1,l),
(1072,147,l),
(424,147,l),
(424,159,l),
(1048,951,l),
(1048,1080,l),
(236,1080,l),
(236,932,l),
(848,932,l),
(848,920,l),
(212,121,l),
(212,-1,l)
);
}
);
width = 1266;
}
);
unicode = 122;
},
{
glyphname = period;
lastChange = "2022-02-22 01:42:57 +0000";
layers = (
{
layerId = m01;
shapes = (
{
closed = 1;
nodes = (
(728,-19,o),
(800,54,o),
(800,147,cs),
(800,240,o),
(728,313,o),
(633,313,cs),
(539,313,o),
(466,240,o),
(466,147,cs),
(466,54,o),
(539,-19,o),
(633,-19,cs)
);
}
);
width = 1266;
}
);
unicode = 46;
},
{
glyphname = comma;
lastChange = "2022-02-22 01:42:47 +0000";
layers = (
{
layerId = m01;
shapes = (
{
closed = 1;
nodes = (
(790,323,l),
(567,323,l),
(430,-279,l),
(581,-279,l)
);
}
);
width = 1266;
}
);
unicode = 44;
},
{
glyphname = semicolon;
lastChange = "2022-02-22 01:42:36 +0000";
layers = (
{
layerId = m01;
shapes = (
{
closed = 1;
nodes = (
(756,323,l),
(533,323,l),
(396,-279,l),
(547,-279,l)
);
},
{
closed = 1;
nodes = (
(727,718,o),
(800,791,o),
(800,884,cs),
(800,977,o),
(727,1049,o),
(633,1049,cs),
(539,1049,o),
(466,977,o),
(466,884,cs),
(466,791,o),
(539,718,o),
(633,718,cs)
);
}
);
width = 1266;
}
);
unicode = 59;
},
{
glyphname = asterisk;
lastChange = "2022-02-22 01:39:25 +0000";
layers = (
{
guides = (
{
angle = 90;
pos = (633,624);
},
{
angle = 30;
pos = (633,624);
},
{
angle = 150;
pos = (633,624);
}
);
layerId = m01;
shapes = (
{
closed = 1;
nodes = (
(708,96,l),
(692,624,l),
(708,1152,l),
(558,1152,l),
(574,624,l),
(558,96,l)
);
},
{
closed = 1;
nodes = (
(213,295,l),
(663,573,l),
(1128,823,l),
(1053,953,l),
(604,675,l),
(138,425,l)
);
},
{
closed = 1;
nodes = (
(1128,425,l),
(663,675,l),
(213,953,l),
(138,823,l),
(604,573,l),
(1053,295,l)
);
}
);
width = 1266;
}
);
unicode = 42;
},
{
glyphname = parenleft;
lastChange = "2022-02-22 01:18:13 +0000";
layers = (
{
layerId = m01;
shapes = (
{
closed = 1;
nodes = (
(408,373,o),
(514,85,o),
(704,-160,c),
(864,-160,l),
(715,21,o),
(584,393,o),
(584,720,cs),
(584,1047,o),
(715,1419,o),
(864,1600,c),
(704,1600,l),
(514,1355,o),
(408,1067,o),
(408,720,cs)
);
}
);
width = 1266;
}
);
unicode = 40;
},
{
glyphname = parenright;
lastChange = "2022-02-22 01:18:52 +0000";
layers = (
{
layerId = m01;
shapes = (
{
closed = 1;
nodes = (
(858,1067,o),
(752,1355,o),
(562,1600,c),
(402,1600,l),
(551,1419,o),
(682,1047,o),
(682,720,cs),
(682,393,o),
(551,21,o),
(402,-160,c),
(562,-160,l),
(752,85,o),
(858,373,o),
(858,720,cs)
);
}
);
width = 1266;
}
);
unicode = 41;
},
{
glyphname = braceleft;
lastChange = "2022-02-22 01:16:40 +0000";
layers = (
{
layerId = m01;
shapes = (
{
closed = 1;
nodes = (
(645,714,o),
(716,814,o),
(716,957,cs),
(716,1232,ls),
(716,1392,o),
(764,1464,o),
(924,1464,c),
(924,1600,l),
(654,1600,o),
(552,1485,o),
(552,1232,cs),
(552,1012,ls),
(552,861,o),
(501,805,o),
(348,805,c),
(348,714,l)
);
},
{
closed = 1;
nodes = (
(348,635,l),
(501,635,o),
(552,579,o),
(552,428,cs),
(552,208,ls),
(552,-45,o),
(654,-160,o),
(924,-160,c),
(924,-24,l),
(764,-24,o),
(716,48,o),
(716,208,cs),
(716,483,ls),
(716,626,o),
(645,726,o),
(348,726,c)
);
},
{
closed = 1;
nodes = (
(357,644,l),
(505,644,l),
(505,796,l),
(357,796,l)
);
}
);
width = 1266;
}
);
unicode = 123;
},
{
glyphname = braceright;
lastChange = "2022-02-22 01:09:12 +0000";
layers = (
{
layerId = m01;
shapes = (
{
closed = 1;
nodes = (
(918,803,l),
(765,803,o),
(712,861,o),
(712,1012,cs),
(712,1232,ls),
(712,1485,o),
(624,1600,o),
(354,1600,c),
(354,1465,l),
(514,1465,o),
(563,1392,o),
(563,1232,cs),
(563,957,ls),
(563,814,o),
(621,717,o),
(918,717,c)
);
},
{
closed = 1;
nodes = (
(624,-160,o),
(712,-45,o),
(712,209,cs),
(712,429,ls),
(712,579,o),
(765,638,o),
(918,638,c),
(918,723,l),
(621,723,o),
(563,627,o),
(563,484,cs),
(563,209,ls),
(563,48,o),
(514,-25,o),
(354,-25,c),
(354,-160,l)
);
},
{
closed = 1;
nodes = (
(918,803,l),
(756,803,l),
(756,638,l),
(918,638,l)
);
}
);
width = 1266;
}
);
unicode = 125;
},
{
glyphname = quotesingle;
lastChange = "2022-02-22 01:57:15 +0000";
layers = (
{
layerId = m01;
shapes = (
{
closed = 1;
nodes = (
(548,828,l),
(718,828,l),
(718,1440,l),
(548,1440,l)
);
}
